<?xml version="1.0" standalone="no"?>
<!DOCTYPE svg PUBLIC "-//W3C//DTD SVG 20010904//EN"
 "http://www.w3.org/TR/2001/REC-SVG-20010904/DTD/svg10.dtd">
<svg version="1.0" xmlns="http://www.w3.org/2000/svg"
 width="216.000000pt" height="216.000000pt" viewBox="0 0 216.000000 216.000000"
 preserveAspectRatio="xMidYMid meet">
<metadata>
Created by potrace 1.14, written by Peter Selinger 2001-2017
</metadata>
<g transform="translate(0.000000,216.000000) scale(0.100000,-0.100000)"
fill="#000000" stroke="none">
<path d="M0 1080 l0 -1080 1080 0 c953 0 1080 2 1080 15 0 12 -16 15 -80 15
l-80 0 0 270 0 270 80 0 80 0 -1 363 c0 255 -4 354 -11 334 -10 -28 -43 -43
-78 -34 -15 4 -19 -1 -22 -26 -2 -17 -9 -32 -16 -35 -9 -3 -12 22 -12 101 l0
104 55 2 c54 1 57 0 70 -32 13 -28 14 18 15 391 l0 422 -1080 0 -1080 0 0
-1080z m831 250 c25 -68 32 -100 24 -100 -7 0 -18 14 -24 30 -9 27 -14 30 -51
30 -37 0 -42 -3 -51 -30 -6 -16 -17 -30 -25 -30 -10 0 -7 17 13 68 14 37 30
82 36 100 19 58 39 40 78 -68z m189 -25 c0 -60 -3 -75 -15 -75 -12 0 -15 14
-15 65 0 62 -1 65 -24 65 -21 0 -24 -6 -29 -51 -7 -54 -20 -79 -43 -79 -19 0
-18 16 1 24 10 4 15 20 15 50 0 69 5 76 61 76 l49 0 0 -75z m154 53 c31 -44
22 -58 -39 -58 -38 0 -55 -4 -55 -13 0 -33 53 -50 78 -25 17 17 28 2 12 -17
-18 -22 -73 -19 -95 5 -11 12 -19 36 -19 55 0 45 28 75 70 75 23 0 38 -7 48
-22z m76 -8 c0 -16 4 -30 10 -30 5 0 19 14 32 30 12 17 28 30 36 30 10 0 6
-11 -13 -36 l-27 -35 31 -40 c27 -32 29 -39 14 -39 -10 0 -27 14 -38 30 -26
39 -45 39 -45 0 0 -20 -5 -30 -15 -30 -12 0 -15 15 -15 75 0 60 3 75 15 75 10
0 15 -10 15 -30z m228 18 c16 -16 15 -28 -3 -28 -8 0 -15 5 -15 10 0 15 -46
12 -59 -4 -17 -20 -10 -77 11 -90 12 -7 24 -6 42 4 31 16 43 9 21 -14 -25 -25
-70 -20 -94 10 -12 15 -21 35 -21 46 0 22 18 60 34 70 17 12 71 9 84 -4z m150
0 c7 -7 12 -39 12 -73 l0 -61 -49 -2 c-54 -2 -75 12 -69 50 2 18 13 25 46 33
24 6 43 14 43 18 -1 4 -1 12 -1 17 0 14 -43 13 -57 -1 -17 -17 -37 -1 -22 17
14 17 80 19 97 2z m72 -18 c0 -28 2 -30 40 -30 38 0 40 2 40 30 0 17 5 30 10
30 6 0 10 -32 10 -75 0 -43 -4 -75 -10 -75 -5 0 -10 16 -10 36 0 35 -1 35 -37
32 -35 -3 -38 -6 -41 -35 -6 -63 -22 -32 -22 42 0 43 4 75 10 75 6 0 10 -13
10 -30z m270 -35 c0 -37 4 -65 10 -65 6 0 10 -13 10 -30 0 -16 -4 -30 -10 -30
-5 0 -10 9 -10 20 0 18 -7 20 -60 20 -53 0 -60 -2 -60 -20 0 -11 -4 -20 -10
-20 -15 0 -12 56 4 69 8 7 18 37 22 67 l6 54 49 0 49 0 0 -65z m-1104 -929
c24 -98 45 -181 48 -184 3 -3 9 8 12 24 3 16 25 99 48 184 l41 155 52 3 c60 3
50 22 109 -208 20 -80 40 -148 44 -153 3 -4 26 76 50 178 l44 185 62 0 62 0
-19 -67 c-11 -38 -45 -158 -77 -268 l-58 -200 -55 -3 -56 -3 -48 168 c-27 92
-51 171 -54 175 -4 4 -29 -70 -56 -165 l-50 -172 -56 -3 -56 -3 -72 253 c-39
139 -74 261 -77 271 -5 16 1 18 57 15 l63 -3 42 -179z m1014 134 l0 -50 -125
0 -125 0 0 -60 0 -60 115 0 115 0 0 -50 0 -50 -115 0 -116 0 3 -62 3 -63 123
-3 122 -3 0 -44 0 -45 -180 0 -180 0 0 270 0 270 180 0 180 0 0 -50z"/>
<path d="M766 1366 c-3 -13 -9 -31 -12 -40 -5 -13 1 -16 26 -16 25 0 31 3 26
16 -3 9 -9 27 -12 40 -3 13 -10 24 -14 24 -4 0 -11 -11 -14 -24z"/>
<path d="M1092 1348 c-21 -21 -14 -28 29 -28 33 0 40 3 37 18 -4 21 -48 28
-66 10z"/>
<path d="M1551 1291 c-21 -13 -5 -41 23 -41 22 0 46 24 46 44 0 9 -54 7 -69
-3z"/>
<path d="M1884 1305 l-10 -55 33 0 33 0 0 55 c0 51 -2 55 -23 55 -20 0 -24 -7
-33 -55z"/>
<path d="M2054 1346 c-10 -26 1 -79 19 -90 36 -23 67 23 53 80 -5 19 -13 24
-37 24 -16 0 -32 -6 -35 -14z"/>
<path d="M2110 410 c0 -68 1 -70 25 -70 24 0 25 2 25 70 0 68 -1 70 -25 70
-24 0 -25 -2 -25 -70z"/>
<path d="M2110 195 c0 -73 1 -75 25 -75 24 0 25 2 25 75 0 73 -1 75 -25 75
-24 0 -25 -2 -25 -75z"/>
</g>
</svg>
